<svg width="23" height="22" viewBox="0 0 23 22" fill="none" xmlns="http://www.w3.org/2000/svg">
<path d="M1.56457 12.2222H9.01618C9.34556 12.2222 9.66145 12.0935 9.89436 11.8642C10.1273 11.635 10.2581 11.3242 10.2581 11V1.22222C10.2581 0.898069 10.1273 0.587192 9.89436 0.357981C9.66145 0.128769 9.34556 0 9.01618 0H1.56457C1.23519 0 0.919294 0.128769 0.686386 0.357981C0.453478 0.587192 0.322632 0.898069 0.322632 1.22222V11C0.322632 11.3242 0.453478 11.635 0.686386 11.8642C0.919294 12.0935 1.23519 12.2222 1.56457 12.2222ZM0.322632 20.7778C0.322632 21.1019 0.453478 21.4128 0.686386 21.642C0.919294 21.8712 1.23519 22 1.56457 22H9.01618C9.34556 22 9.66145 21.8712 9.89436 21.642C10.1273 21.4128 10.2581 21.1019 10.2581 20.7778V15.8889C10.2581 15.5647 10.1273 15.2539 9.89436 15.0246C9.66145 14.7954 9.34556 14.6667 9.01618 14.6667H1.56457C1.23519 14.6667 0.919294 14.7954 0.686386 15.0246C0.453478 15.2539 0.322632 15.5647 0.322632 15.8889V20.7778ZM12.742 20.7778C12.742 21.1019 12.8728 21.4128 13.1057 21.642C13.3386 21.8712 13.6545 22 13.9839 22H21.4355C21.7649 22 22.0808 21.8712 22.3137 21.642C22.5466 21.4128 22.6775 21.1019 22.6775 20.7778V12.2222C22.6775 11.8981 22.5466 11.5872 22.3137 11.358C22.0808 11.1288 21.7649 11 21.4355 11H13.9839C13.6545 11 13.3386 11.1288 13.1057 11.358C12.8728 11.5872 12.742 11.8981 12.742 12.2222V20.7778ZM13.9839 8.55556H21.4355C21.7649 8.55556 22.0808 8.42679 22.3137 8.19757C22.5466 7.96836 22.6775 7.65749 22.6775 7.33333V1.22222C22.6775 0.898069 22.5466 0.587192 22.3137 0.357981C22.0808 0.128769 21.7649 0 21.4355 0H13.9839C13.6545 0 13.3386 0.128769 13.1057 0.357981C12.8728 0.587192 12.742 0.898069 12.742 1.22222V7.33333C12.742 7.65749 12.8728 7.96836 13.1057 8.19757C13.3386 8.42679 13.6545 8.55556 13.9839 8.55556Z" fill="#ffffff"/>
</svg>
