<svg width="22" height="22" viewBox="0 0 22 22" fill="none" xmlns="http://www.w3.org/2000/svg">
<path d="M7.04167 2.875H6.83333C6.94792 2.875 7.04167 2.78125 7.04167 2.66667V2.875H14.9583V2.66667C14.9583 2.78125 15.0521 2.875 15.1667 2.875H14.9583V4.75H16.8333V2.66667C16.8333 1.7474 16.0859 1 15.1667 1H6.83333C5.91406 1 5.16667 1.7474 5.16667 2.66667V4.75H7.04167V2.875ZM20.1667 4.75H1.83333C1.3724 4.75 1 5.1224 1 5.58333V6.41667C1 6.53125 1.09375 6.625 1.20833 6.625H2.78125L3.42448 20.2448C3.46615 21.1328 4.20052 21.8333 5.08854 21.8333H16.9115C17.8021 21.8333 18.5339 21.1354 18.5755 20.2448L19.2187 6.625H20.7917C20.9062 6.625 21 6.53125 21 6.41667V5.58333C21 5.1224 20.6276 4.75 20.1667 4.75ZM16.7109 19.9583H5.28906L4.65885 6.625H17.3411L16.7109 19.9583Z" fill="#8F8F8F"/>
<path d="M7.04167 2.875H6.83333C6.94792 2.875 7.04167 2.78125 7.04167 2.66667V2.875ZM7.04167 2.875H14.9583V2.66667C14.9583 2.78125 15.0521 2.875 15.1667 2.875H14.9583V4.75H16.8333V2.66667C16.8333 1.7474 16.0859 1 15.1667 1H6.83333C5.91406 1 5.16667 1.7474 5.16667 2.66667V4.75H7.04167V2.875ZM20.1667 4.75H1.83333C1.3724 4.75 1 5.1224 1 5.58333V6.41667C1 6.53125 1.09375 6.625 1.20833 6.625H2.78125L3.42448 20.2448C3.46615 21.1328 4.20052 21.8333 5.08854 21.8333H16.9115C17.8021 21.8333 18.5339 21.1354 18.5755 20.2448L19.2187 6.625H20.7917C20.9062 6.625 21 6.53125 21 6.41667V5.58333C21 5.1224 20.6276 4.75 20.1667 4.75ZM16.7109 19.9583H5.28906L4.65885 6.625H17.3411L16.7109 19.9583Z" stroke="#8F8F8F" stroke-width="0.2"/>
</svg>
