<svg width="13" height="13" viewBox="0 0 13 13" fill="none" xmlns="http://www.w3.org/2000/svg">
<path d="M0 10.292V13H2.70797L10.6947 5.01331L7.98669 2.30534L0 10.292ZM12.7888 2.91915C12.8558 2.85234 12.9089 2.77299 12.9451 2.68563C12.9813 2.59827 13 2.50462 13 2.41005C13 2.31547 12.9813 2.22183 12.9451 2.13447C12.9089 2.04711 12.8558 1.96776 12.7888 1.90095L11.099 0.211181C11.0322 0.144237 10.9529 0.0911269 10.8655 0.0548897C10.7782 0.0186524 10.6845 0 10.59 0C10.4954 0 10.4017 0.0186524 10.3144 0.0548897C10.227 0.0911269 10.1477 0.144237 10.0809 0.211181L8.75937 1.53267L11.4673 4.24063L12.7888 2.91915Z" fill="white"/>
</svg>
