<svg width="30" height="27" viewBox="0 0 30 27" fill="none" xmlns="http://www.w3.org/2000/svg">
<path d="M11.1 10.575L29.1 10.575C29.265 10.575 29.4 10.44 29.4 10.275V8.175C29.4 8.01 29.265 7.875 29.1 7.875L11.1 7.875C10.935 7.875 10.8 8.01 10.8 8.175V10.275C10.8 10.44 10.935 10.575 11.1 10.575ZM10.8 18.225C10.8 18.39 10.935 18.525 11.1 18.525L29.1 18.525C29.265 18.525 29.4 18.39 29.4 18.225V16.125C29.4 15.96 29.265 15.825 29.1 15.825L11.1 15.825C10.935 15.825 10.8 15.96 10.8 16.125V18.225ZM29.7 0L0.3 0C0.135 0 0 0.135 0 0.3L0 2.4C0 2.565 0.135 2.7 0.3 2.7L29.7 2.7C29.865 2.7 30 2.565 30 2.4V0.3C30 0.135 29.865 0 29.7 0ZM29.7 23.7L0.3 23.7C0.135 23.7 0 23.835 0 24L0 26.1C0 26.265 0.135 26.4 0.3 26.4L29.7 26.4C29.865 26.4 30 26.265 30 26.1V24C30 23.835 29.865 23.7 29.7 23.7ZM0.1275 13.4588L5.98875 18.075C6.20625 18.2475 6.52875 18.0938 6.52875 17.8162L6.52875 8.58375C6.52875 8.30625 6.21 8.1525 5.98875 8.325L0.1275 12.9413C0.0880883 12.9719 0.0561969 13.0111 0.0342593 13.056C0.0123218 13.1008 0.000917816 13.1501 0.000917816 13.2C0.000917816 13.2499 0.0123218 13.2992 0.0342593 13.344C0.0561969 13.3889 0.0880883 13.4281 0.1275 13.4588Z" fill="#C3C3C3"/>
</svg>
