<svg width="22" height="22" viewBox="0 0 22 22" fill="none" xmlns="http://www.w3.org/2000/svg">
<circle cx="11" cy="11" r="11" fill="#C3C3C3"/>
<path d="M15.5985 6.84489C15.3431 6.2865 14.9799 5.78467 14.5164 5.35584C13.5748 4.48175 12.3248 4 11 4C9.67518 4 8.42518 4.48175 7.48358 5.35401C7.02007 5.78467 6.65693 6.28467 6.40146 6.84489C6.13504 7.42883 6 8.04745 6 8.68613V9.17883C6 9.29197 6.09124 9.38321 6.20438 9.38321H7.18978C7.30292 9.38321 7.39416 9.29197 7.39416 9.17883V8.68613C7.39416 6.87044 9.01095 5.39416 11 5.39416C12.9891 5.39416 14.6058 6.87044 14.6058 8.68613C14.6058 9.43066 14.3412 10.1314 13.8394 10.7153C13.3431 11.2938 12.6423 11.708 11.8668 11.8832C11.4234 11.9836 11.0237 12.2336 10.7409 12.5912C10.459 12.9477 10.3054 13.3886 10.3047 13.8431V14.4161C10.3047 14.5292 10.396 14.6204 10.5091 14.6204H11.4945C11.6077 14.6204 11.6989 14.5292 11.6989 14.4161V13.8431C11.6989 13.5566 11.8978 13.3047 12.1734 13.2427C13.2391 13.0018 14.2062 12.427 14.8978 11.6241C15.2463 11.2172 15.5182 10.7646 15.7062 10.2737C15.9015 9.7646 16 9.22993 16 8.68613C16 8.04745 15.865 7.42701 15.5985 6.84489ZM11 16.0803C10.4361 16.0803 9.9781 16.5383 9.9781 17.1022C9.9781 17.6661 10.4361 18.1241 11 18.1241C11.5639 18.1241 12.0219 17.6661 12.0219 17.1022C12.0219 16.5383 11.5639 16.0803 11 16.0803Z" fill="white" stroke="white" stroke-width="0.5"/>
</svg>
