<svg width="30" height="30" viewBox="0 0 30 30" fill="none" xmlns="http://www.w3.org/2000/svg">
<path d="M14.9999 6C13.4354 6.00198 11.9357 6.62433 10.8294 7.73055C9.72321 8.83678 9.10086 10.3366 9.09888 11.901H12.0989C12.0989 10.3005 13.4009 9 14.9999 9C16.5989 9 17.9009 10.3005 17.9009 11.901C17.9009 12.798 17.1794 13.449 16.0769 14.34C15.7167 14.6221 15.3708 14.922 15.0404 15.2385C13.5434 16.734 13.4999 18.3225 13.4999 18.4995V19.5H16.4999L16.4984 18.5505C16.4999 18.5265 16.5479 17.9715 17.1599 17.361C17.3849 17.136 17.6684 16.911 17.9624 16.674C19.1309 15.7275 20.8994 14.298 20.8994 11.901C20.8982 10.3366 20.2763 8.83656 19.1702 7.73021C18.0642 6.62386 16.5643 6.00159 14.9999 6ZM13.4999 21H16.4999V24H13.4999V21Z" fill="#3683BC"/>
<path d="M15 0C6.729 0 0 6.729 0 15C0 23.271 6.729 30 15 30C23.271 30 30 23.271 30 15C30 6.729 23.271 0 15 0ZM15 27C8.3835 27 3 21.6165 3 15C3 8.3835 8.3835 3 15 3C21.6165 3 27 8.3835 27 15C27 21.6165 21.6165 27 15 27Z" fill="#3683BC"/>
</svg>
