<svg width="25" height="23" viewBox="0 0 25 23" fill="none" xmlns="http://www.w3.org/2000/svg">
<path d="M0 4.53354V18.169C0 19.4245 0.5231 20.5404 1.36006 21.4122C2.19702 22.2492 3.2781 22.7026 4.53354 22.7026H11.3687V19.8778H4.53354C3.59196 19.8778 2.85962 19.1106 2.85962 18.169V4.53354C2.85962 3.59196 3.59196 2.85962 4.53354 2.85962H11.3687V0H4.53354C3.2781 0 2.19702 0.488227 1.36006 1.32519C0.5231 2.19702 0 3.2781 0 4.53354ZM7.49777 8.64859V14.0888C7.49777 14.7166 8.05575 15.2397 8.68347 15.2397H14.9955V19.5291C14.9955 19.9127 15.2048 20.2266 15.5535 20.4009C15.693 20.4358 15.8325 20.4358 15.9023 20.4358C16.1464 20.4358 16.3556 20.366 16.53 20.1917L24.7252 11.9964C25.1088 11.6826 25.0739 11.0549 24.7252 10.7061L16.53 2.54576C16.0417 2.02266 14.9955 2.33652 14.9955 3.17348V7.49777H8.68347C8.05575 7.49777 7.49777 8.02087 7.49777 8.64859Z" fill="#C3C3C3"/>
</svg>
