<svg width="29" height="32" viewBox="0 0 29 32" fill="none" xmlns="http://www.w3.org/2000/svg">
<path d="M24.9462 18.6879V13.0968C24.9462 8.08102 21.5395 3.85575 16.9245 2.58505C16.4676 1.43441 15.3513 0.623657 14.0323 0.623657C12.7132 0.623657 11.5969 1.43441 11.1401 2.58505C6.525 3.85731 3.11828 8.08102 3.11828 13.0968V18.6879L0.45683 21.3493C0.311763 21.4938 0.196718 21.6656 0.118316 21.8548C0.0399142 22.044 -0.000295377 22.2468 1.63347e-06 22.4516V25.5699C1.63347e-06 25.9834 0.164268 26.38 0.456663 26.6724C0.749058 26.9648 1.14563 27.129 1.55914 27.129H26.5054C26.9189 27.129 27.3155 26.9648 27.6079 26.6724C27.9003 26.38 28.0645 25.9834 28.0645 25.5699V22.4516C28.0648 22.2468 28.0246 22.044 27.9462 21.8548C27.8678 21.6656 27.7528 21.4938 27.6077 21.3493L24.9462 18.6879ZM24.9462 24.0108H3.11828V23.0971L5.77973 20.4356C5.9248 20.2911 6.03984 20.1193 6.11825 19.9301C6.19665 19.7409 6.23686 19.5381 6.23656 19.3333V13.0968C6.23656 8.79823 9.73371 5.30108 14.0323 5.30108C18.3308 5.30108 21.828 8.79823 21.828 13.0968V19.3333C21.828 19.7481 21.9917 20.1441 22.2848 20.4356L24.9462 23.0971V24.0108ZM14.0323 31.8065C14.9978 31.8077 15.9398 31.508 16.7272 30.9492C17.5146 30.3903 18.1084 29.6 18.4259 28.6882H9.6386C9.95614 29.6 10.5499 30.3903 11.3373 30.9492C12.1247 31.508 13.0667 31.8077 14.0323 31.8065Z" fill="#3683BC"/>
</svg>
