<svg width="35" height="35" viewBox="0 0 35 35" fill="none" xmlns="http://www.w3.org/2000/svg">
<path d="M31.9238 14.4238C30.5888 14.4238 29.4613 15.2837 29.0365 16.4746H26.6249C26.4256 14.7036 25.7373 13.0957 24.6782 11.7718L26.3475 10.1025C27.665 10.7237 28.9719 10.378 29.8257 9.52424C31.0253 8.3246 31.0253 6.37396 29.8257 5.17433C28.626 3.97469 26.6754 3.97469 25.4758 5.17433C24.5331 6.117 24.3588 7.51126 24.8975 8.65252L23.2282 10.3218C21.9043 9.2627 20.2964 8.57438 18.5254 8.37512V5.96347C19.7163 5.53875 20.5762 4.41123 20.5762 3.07617C20.5762 1.3799 19.1963 0 17.5 0C15.8037 0 14.4238 1.3799 14.4238 3.07617C14.4238 4.41123 15.2837 5.53875 16.4746 5.96347V8.37512C14.7036 8.57438 13.0957 9.2627 11.7718 10.3218L10.1025 8.65252C10.6412 7.51119 10.4668 6.11693 9.52424 5.17433C8.3246 3.97469 6.37396 3.97469 5.17433 5.17433C3.97469 6.37396 3.97469 8.3246 5.17433 9.52424C6.02813 10.378 7.3351 10.7237 8.65252 10.1025L10.3218 11.7718C9.2627 13.0957 8.57438 14.7036 8.37512 16.4746H5.96347C5.53875 15.2837 4.41123 14.4238 3.07617 14.4238C1.3799 14.4238 0 15.8037 0 17.5C0 19.1963 1.3799 20.5762 3.07617 20.5762C4.41123 20.5762 5.53875 19.7163 5.96347 18.5254H8.37512C8.57438 20.2964 9.2627 21.9043 10.3218 23.2282L8.65252 24.8975C7.51119 24.3589 6.1168 24.5333 5.17433 25.4758C3.97469 26.6754 3.97469 28.626 5.17433 29.8257C6.37396 31.0253 8.32453 31.0253 9.52424 29.8257C10.4668 28.8831 10.6412 27.4887 10.1025 26.3475L11.7718 24.6782C13.0957 25.7373 14.7036 26.4256 16.4746 26.6249V29.0365C15.2837 29.4613 14.4238 30.5888 14.4238 31.9238C14.4238 33.6201 15.8037 35 17.5 35C19.1963 35 20.5762 33.6201 20.5762 31.9238C20.5762 30.5888 19.7163 29.4613 18.5254 29.0365V26.6249C20.2964 26.4256 21.9043 25.7373 23.2282 24.6782L24.8975 26.3475C24.3589 27.4888 24.5333 28.8832 25.4758 29.8257C26.6754 31.0253 28.626 31.0253 29.8257 29.8257C31.0253 28.626 31.0253 26.6754 29.8257 25.4758C28.883 24.5331 27.4887 24.3588 26.3475 24.8975L24.6782 23.2282C25.7373 21.9043 26.4256 20.2964 26.6249 18.5254H29.0365C29.4613 19.7163 30.5888 20.5762 31.9238 20.5762C33.6201 20.5762 35 19.1963 35 17.5C35 15.8037 33.6201 14.4238 31.9238 14.4238ZM21.9092 23.1191C20.9696 21.4749 19.2475 20.5762 17.5 20.5762C15.76 20.5762 14.2013 21.3235 13.1113 23.1396C12.5577 22.7089 12.045 22.1962 11.6348 21.6221C12.5305 20.5471 12.783 20.008 14.4649 19.2021C13.8086 18.4843 13.3984 17.5205 13.3984 16.4746C13.3984 14.2188 15.2442 12.373 17.5 12.373C19.7558 12.373 21.6016 14.2188 21.6016 16.4746C21.6016 17.5205 21.1914 18.4843 20.5351 19.2022C21.6422 19.7172 22.6981 20.5535 23.3652 21.6016C22.9755 22.1758 22.4628 22.668 21.9092 23.1191Z" fill="#ffffff"/>
</svg>
