<svg width="20" height="21" viewBox="0 0 20 21" fill="none" xmlns="http://www.w3.org/2000/svg">
<path d="M19.3724 4.51494L15.6276 0.770212C15.2258 0.368348 14.6807 0.142581 14.1124 0.142578H2.14286C0.959375 0.142578 0 1.10195 0 2.28544V17.9997C0 19.1832 0.959375 20.1426 2.14286 20.1426H17.8571C19.0406 20.1426 20 19.1832 20 17.9997V6.03017C20 5.46185 19.7742 4.9168 19.3724 4.51494ZM10 17.2854C8.42205 17.2854 7.14286 16.0062 7.14286 14.4283C7.14286 12.8503 8.42205 11.5711 10 11.5711C11.5779 11.5711 12.8571 12.8503 12.8571 14.4283C12.8571 16.0062 11.5779 17.2854 10 17.2854ZM14.2857 3.69079V8.17829C14.2857 8.47414 14.0458 8.71401 13.75 8.71401H3.39286C3.09701 8.71401 2.85714 8.47414 2.85714 8.17829V3.53543C2.85714 3.23959 3.09701 2.99972 3.39286 2.99972H13.5946C13.7367 2.99972 13.873 3.05615 13.9734 3.15664L14.1288 3.312C14.1785 3.36174 14.218 3.42079 14.2449 3.48578C14.2719 3.55078 14.2857 3.62044 14.2857 3.69079Z" fill="white"/>
</svg>
