<svg width="30" height="30" viewBox="0 0 30 30" fill="none" xmlns="http://www.w3.org/2000/svg">
<path d="M12.9741 24.9483C15.6309 24.9477 18.211 24.0583 20.3038 22.4217L26.8836 29.0015L29 26.8851L22.4202 20.3053C24.0577 18.2123 24.9476 15.6315 24.9483 12.9741C24.9483 6.37189 19.5764 1 12.9741 1C6.37189 1 1 6.37189 1 12.9741C1 19.5764 6.37189 24.9483 12.9741 24.9483ZM12.9741 3.99353C17.9269 3.99353 21.9547 8.02133 21.9547 12.9741C21.9547 17.9269 17.9269 21.9547 12.9741 21.9547C8.02133 21.9547 3.99353 17.9269 3.99353 12.9741C3.99353 8.02133 8.02133 3.99353 12.9741 3.99353Z" fill="white" stroke="white"/>
</svg>
