<svg width="22" height="23" viewBox="0 0 22 23" fill="none" xmlns="http://www.w3.org/2000/svg">
<path d="M9.40824 18.8165C11.4957 18.8161 13.5229 18.1173 15.1673 16.8313L20.3371 22.0012L22 20.3383L16.8302 15.1684C18.1167 13.524 18.816 11.4962 18.8165 9.40824C18.8165 4.22077 14.5957 0 9.40824 0C4.22077 0 0 4.22077 0 9.40824C0 14.5957 4.22077 18.8165 9.40824 18.8165ZM9.40824 2.35206C13.2997 2.35206 16.4644 5.51676 16.4644 9.40824C16.4644 13.2997 13.2997 16.4644 9.40824 16.4644C5.51676 16.4644 2.35206 13.2997 2.35206 9.40824C2.35206 5.51676 5.51676 2.35206 9.40824 2.35206Z" fill="#C3C3C3"/>
</svg>
