<svg width="28" height="30" viewBox="0 0 28 30" fill="none" xmlns="http://www.w3.org/2000/svg">
<path d="M14 20.6667C17.1252 20.6667 19.6667 18.1252 19.6667 15C19.6667 11.8749 17.1252 9.33337 14 9.33337C10.8749 9.33337 8.33337 11.8749 8.33337 15C8.33337 18.1252 10.8749 20.6667 14 20.6667ZM14 12.1667C15.5357 12.1667 16.8334 13.4644 16.8334 15C16.8334 16.5357 15.5357 17.8334 14 17.8334C12.4644 17.8334 11.1667 16.5357 11.1667 15C11.1667 13.4644 12.4644 12.1667 14 12.1667Z" fill="#3683BC"/>
<path d="M1.03043 20.8594L2.44709 23.3102C3.19934 24.6093 5.00984 25.0966 6.31459 24.3444L7.06401 23.9109C7.88361 24.5556 8.78726 25.0856 9.75001 25.4862V26.3334C9.75001 27.896 11.0208 29.1667 12.5833 29.1667H15.4167C16.9793 29.1667 18.25 27.896 18.25 26.3334V25.4862C19.2124 25.0855 20.116 24.556 20.936 23.9123L21.6854 24.3458C22.993 25.0966 24.7993 24.6121 25.5543 23.3102L26.9696 20.8608C27.345 20.2101 27.4469 19.437 27.2527 18.7113C27.0585 17.9856 26.5842 17.3667 25.934 16.9905L25.2186 16.5768C25.3707 15.5321 25.3707 14.4708 25.2186 13.4261L25.934 13.0125C26.5839 12.636 27.058 12.017 27.2521 11.2914C27.4463 10.5658 27.3447 9.79288 26.9696 9.14212L25.5543 6.69271C24.8021 5.38937 22.993 4.90062 21.6854 5.65571L20.936 6.08921C20.1164 5.44449 19.2128 4.9145 18.25 4.51387V3.66671C18.25 2.10412 16.9793 0.833374 15.4167 0.833374H12.5833C11.0208 0.833374 9.75001 2.10412 9.75001 3.66671V4.51387C8.78759 4.91457 7.88401 5.44404 7.06401 6.08779L6.31459 5.65429C5.00559 4.90204 3.19793 5.38937 2.44568 6.69129L1.03043 9.14071C0.654984 9.79138 0.553167 10.5645 0.74734 11.2902C0.941513 12.0159 1.4158 12.6348 2.06601 13.011L2.78143 13.4247C2.62876 14.4689 2.62876 15.5298 2.78143 16.574L2.06601 16.9876C1.41599 17.3644 0.941925 17.9836 0.747791 18.7094C0.553657 19.4352 0.655299 20.2084 1.03043 20.8594ZM5.74226 16.9522C5.5823 16.3138 5.50094 15.6582 5.50001 15C5.50001 14.3455 5.58218 13.6882 5.74084 13.0479C5.81556 12.7494 5.79098 12.4348 5.67084 12.1515C5.55069 11.8683 5.34153 11.6319 5.07501 11.4782L3.48409 10.5574L4.89793 8.10796L6.52001 9.04579C6.78454 9.19886 7.09158 9.262 7.39504 9.22572C7.6985 9.18945 7.98201 9.05573 8.20301 8.84462C9.16141 7.93308 10.3171 7.25486 11.5803 6.86271C11.8705 6.77412 12.1246 6.59472 12.3051 6.35091C12.4857 6.1071 12.5832 5.81176 12.5833 5.50837V3.66671H15.4167V5.50837C15.4168 5.81176 15.5143 6.1071 15.6949 6.35091C15.8754 6.59472 16.1295 6.77412 16.4197 6.86271C17.6826 7.25542 18.8382 7.93357 19.797 8.84462C20.0182 9.05532 20.3017 9.18876 20.6051 9.22502C20.9084 9.26128 21.2154 9.19841 21.48 9.04579L23.1007 8.10937L24.5173 10.5588L22.925 11.4782C22.6587 11.6321 22.4496 11.8685 22.3295 12.1517C22.2094 12.4348 22.1847 12.7494 22.2592 13.0479C22.4178 13.6882 22.5 14.3455 22.5 15C22.5 15.6531 22.4178 16.3105 22.2578 16.9522C22.1834 17.2508 22.2083 17.5655 22.3287 17.8487C22.4491 18.1319 22.6584 18.3682 22.925 18.5219L24.5159 19.4413L23.1021 21.8907L21.48 20.9543C21.2155 20.801 20.9085 20.7377 20.6049 20.774C20.3014 20.8103 20.0179 20.9441 19.797 21.1555C18.8386 22.067 17.6829 22.7452 16.4197 23.1374C16.1295 23.226 15.8754 23.4054 15.6949 23.6492C15.5143 23.893 15.4168 24.1883 15.4167 24.4917L15.4195 26.3334H12.5833V24.4917C12.5832 24.1883 12.4857 23.893 12.3051 23.6492C12.1246 23.4054 11.8705 23.226 11.5803 23.1374C10.3174 22.7447 9.16178 22.0665 8.20301 21.1555C7.98244 20.9435 7.69875 20.8094 7.39501 20.7733C7.09127 20.7373 6.78406 20.8013 6.52001 20.9557L4.89934 21.8935L3.48268 19.4441L5.07501 18.5219C5.34162 18.3682 5.55094 18.1319 5.67132 17.8487C5.79171 17.5655 5.81661 17.2508 5.74226 16.9522Z" fill="#3683BC"/>
</svg>
