<svg width="24" height="24" viewBox="0 0 24 24" fill="none" xmlns="http://www.w3.org/2000/svg">
<path d="M23.586 11.1877L1.086 0.0782723C0.8535 -0.0357849 0.579 -0.0254161 0.357 0.11086C0.135 0.245655 0 0.484138 0 0.740397V9.62798H4.5V7.40608C4.5 7.14982 4.635 6.91134 4.8555 6.77654C5.0775 6.64027 5.352 6.6299 5.5845 6.74396L14.5845 11.1877C14.8395 11.3137 15 11.5699 15 11.8499C15 12.1298 14.8395 12.3861 14.586 12.512L5.586 16.9558C5.4795 17.0076 5.3655 17.0343 5.25 17.0343C5.1135 17.0343 4.9755 16.9973 4.8555 16.9247C4.635 16.7884 4.5 16.5499 4.5 16.2937V14.0718H0V22.9593C0 23.2156 0.135 23.4541 0.3555 23.5904C0.4755 23.6629 0.6135 23.7 0.75 23.7C0.8655 23.7 0.9795 23.6733 1.086 23.6215L23.586 12.512C23.8395 12.3861 24 12.1298 24 11.8499C24 11.5699 23.8395 11.3137 23.586 11.1877Z" fill="#3683BC"/>
</svg>
