<svg width="31" height="31" viewBox="0 0 31 31" fill="none" xmlns="http://www.w3.org/2000/svg">
<path d="M30.2807 14.2102L1.70203 0.0994185C1.40671 -0.0454526 1.05806 -0.0322825 0.776079 0.14081C0.494104 0.312022 0.322632 0.614934 0.322632 0.940424V12.2291H6.03836V9.40692C6.03836 9.08143 6.20983 8.77852 6.4899 8.60731C6.77188 8.43421 7.12054 8.42104 7.41585 8.56591L18.8473 14.2102C19.1712 14.3702 19.3751 14.6957 19.3751 15.0512C19.3751 15.4068 19.1712 15.7323 18.8492 15.8923L7.41775 21.5366C7.28248 21.6024 7.13768 21.6363 6.99098 21.6363C6.8176 21.6363 6.64232 21.5893 6.4899 21.4971C6.20983 21.324 6.03836 21.0211 6.03836 20.6956V17.8734H0.322632V29.1621C0.322632 29.4876 0.494104 29.7905 0.774174 29.9636C0.926594 30.0558 1.10188 30.1028 1.27525 30.1028C1.42196 30.1028 1.56675 30.0689 1.70203 30.0031L30.2807 15.8923C30.6026 15.7323 30.8065 15.4068 30.8065 15.0512C30.8065 14.6957 30.6026 14.3702 30.2807 14.2102Z" fill="#ffffff"/>
</svg>
