<svg width="37" height="37" viewBox="0 0 37 37" fill="none" xmlns="http://www.w3.org/2000/svg">
<path d="M18.2472 37C8.16927 37 0 28.8307 0 18.7528C0 8.67488 8.16927 0.505615 18.2472 0.505615C28.3251 0.505615 36.4944 8.67488 36.4944 18.7528C36.4944 28.8307 28.3251 37 18.2472 37ZM18.2472 33.3506C22.1188 33.3506 25.8318 31.8126 28.5694 29.075C31.307 26.3374 32.8449 22.6244 32.8449 18.7528C32.8449 14.8812 31.307 11.1682 28.5694 8.43064C25.8318 5.69303 22.1188 4.15505 18.2472 4.15505C14.3756 4.15505 10.6626 5.69303 7.92502 8.43064C5.18741 11.1682 3.64944 14.8812 3.64944 18.7528C3.64944 22.6244 5.18741 26.3374 7.92502 29.075C10.6626 31.8126 14.3756 33.3506 18.2472 33.3506Z" fill="#3683BC"/>
<path d="M29.8766 18.2253L12.18 9.37695C11.9971 9.2861 11.7812 9.29436 11.6066 9.4029C11.432 9.51026 11.3258 9.70021 11.3258 9.90431V16.983H14.8652V15.2134C14.8652 15.0092 14.9713 14.8193 15.1448 14.7119C15.3194 14.6034 15.5353 14.5951 15.7181 14.686L22.7968 18.2253C22.9974 18.3256 23.1236 18.5297 23.1236 18.7527C23.1236 18.9757 22.9974 19.1798 22.798 19.2801L15.7193 22.8194C15.6356 22.8607 15.5459 22.882 15.4551 22.882C15.3477 22.882 15.2392 22.8525 15.1448 22.7947C14.9713 22.6861 14.8652 22.4962 14.8652 22.2921V20.5224H11.3258V27.6011C11.3258 27.8052 11.432 27.9952 11.6054 28.1037C11.6998 28.1615 11.8084 28.191 11.9157 28.191C12.0066 28.191 12.0962 28.1698 12.18 28.1285L29.8766 19.2801C30.076 19.1798 30.2022 18.9757 30.2022 18.7527C30.2022 18.5297 30.076 18.3256 29.8766 18.2253Z" fill="#3683BC"/>
</svg>
